<svg width="28" height="34" viewBox="0 0 28 34" fill="none" xmlns="http://www.w3.org/2000/svg">
<path fill-rule="evenodd" clip-rule="evenodd" d="M24.4858 0.286183C24.7966 0.0196015 25.1678 -0.0649478 25.5214 0.0502799C25.875 0.165508 26.1836 0.471553 26.3823 0.904183L27.7711 3.92418C27.9521 4.31871 28.0296 4.79173 27.9898 5.25976C27.95 5.72779 27.7956 6.16074 27.5537 6.48218L27.5495 6.49018L27.5298 6.51618L27.4499 6.62218L27.1342 7.05218C25.3879 9.46751 23.6944 11.9594 22.0562 14.5242C18.9743 19.3562 15.3145 25.6802 12.8513 31.8162C12.1639 33.5282 10.4848 33.8962 9.48883 32.4182L0.39188 18.9422C0.261514 18.749 0.159722 18.5204 0.0925528 18.27C0.0253839 18.0196 -0.00578997 17.7525 0.000883899 17.4846C0.00755776 17.2167 0.0519432 16.9534 0.131402 16.7104C0.210861 16.4674 0.323771 16.2497 0.463421 16.0702L3.21285 12.5342C3.45446 12.2236 3.76427 12.0424 4.08926 12.0216C4.41425 12.0008 4.7342 12.1417 4.99436 12.4202L9.63612 17.3822C16.887 7.18818 20.9985 3.27618 24.4858 0.286183Z" fill="#FF0000"/>
</svg>
