<svg width="56" height="56" viewBox="0 0 56 56" fill="none" xmlns="http://www.w3.org/2000/svg">
<path fill-rule="evenodd" clip-rule="evenodd" d="M28.0319 35.5378L46.8907 54.3751C47.8914 55.3747 49.2487 55.9362 50.6639 55.9362C52.0791 55.9362 53.4364 55.3747 54.4371 54.3751C55.4378 53.3755 56 52.0198 56 50.6062C56 49.1926 55.4378 47.8369 54.4371 46.8373L35.5712 28L54.4335 9.16267C54.9288 8.66774 55.3216 8.0802 55.5896 7.43363C55.8575 6.78705 55.9953 6.09409 55.9952 5.39431C55.995 4.69452 55.8569 4.00163 55.5886 3.35518C55.3204 2.70872 54.9273 2.12138 54.4318 1.62668C53.9363 1.13197 53.3481 0.739597 52.7007 0.471955C52.0534 0.204312 51.3597 0.0666427 50.6591 0.0668076C49.9585 0.0669725 49.2648 0.204968 48.6176 0.472915C47.9704 0.740862 47.3824 1.13352 46.8872 1.62845L28.0319 20.4658L9.17307 1.62845C8.68123 1.11932 8.0928 0.713124 7.44211 0.433571C6.79143 0.154018 6.09152 0.0067026 5.38323 0.000223447C4.67494 -0.00625571 3.97245 0.12823 3.31675 0.395833C2.66106 0.663436 2.06528 1.0588 1.56418 1.55885C1.06309 2.0589 0.666716 2.65363 0.398189 3.30833C0.129662 3.96303 -0.00563866 4.66459 0.000180006 5.37208C0.00599867 6.07956 0.15282 6.77881 0.432079 7.42901C0.711337 8.07922 1.11744 8.66736 1.62669 9.15912L20.4926 28L1.63025 46.8409C1.121 47.3326 0.714895 47.9208 0.435636 48.571C0.156378 49.2212 0.00955467 49.9204 0.003736 50.6279C-0.00208266 51.3354 0.133218 52.037 0.401745 52.6917C0.670272 53.3464 1.06665 53.9411 1.56774 54.4412C2.06883 54.9412 2.66461 55.3366 3.32031 55.6042C3.97601 55.8718 4.6785 56.0063 5.38679 55.9998C6.09508 55.9933 6.79499 55.846 7.44567 55.5664C8.09635 55.2869 8.68478 54.8807 9.17662 54.3715L28.0319 35.5378Z" fill="#FF0000"/>
</svg>
