<svg width="40" height="40" viewBox="0 0 40 40" fill="none" xmlns="http://www.w3.org/2000/svg">
<path d="M4.44444 0H35.5556C36.7343 0 37.8648 0.468252 38.6983 1.30175C39.5317 2.13524 40 3.2657 40 4.44444V35.5556C40 38.0222 38.0222 40 35.5556 40H4.44444C3.2657 40 2.13524 39.5317 1.30175 38.6983C0.468252 37.8648 0 36.7343 0 35.5556V4.44444C0 2 2 0 4.44444 0ZM26.6667 31.1111C27.894 31.1111 28.8889 30.1162 28.8889 28.8889V28.8889C28.8889 27.6616 27.894 26.6667 26.6667 26.6667H13.3333C12.106 26.6667 11.1111 27.6616 11.1111 28.8889V28.8889C11.1111 30.1162 12.106 31.1111 13.3333 31.1111H26.6667ZM24.9605 17.7778C26.4102 17.7778 27.1362 16.0251 26.1111 15L22.6035 11.4924C21.1656 10.0545 18.8344 10.0545 17.3965 11.4924L13.8889 15C12.8638 16.0251 13.5898 17.7778 15.0395 17.7778V17.7778C15.9382 17.7778 16.6667 18.5063 16.6667 19.405V21.1111C16.6667 22.9521 18.1591 24.4444 20 24.4444V24.4444C21.841 24.4444 23.3333 22.9521 23.3333 21.1111V19.405C23.3333 18.5063 24.0618 17.7778 24.9605 17.7778V17.7778Z" fill="white"/>
</svg>
