<svg width="56" height="45" viewBox="0 0 56 45" fill="none" xmlns="http://www.w3.org/2000/svg">
<path d="M0 16.8702C0 16.3958 0.187975 15.9103 0.552868 15.5462C1.28265 14.8179 2.47685 14.8179 3.20663 15.5462L28.1852 40.4708L52.7989 15.9103C53.5287 15.1821 54.7229 15.1821 55.4527 15.9103C56.1824 16.6385 56.1824 17.8301 55.4527 18.5583L29.5121 44.4538C28.7823 45.1821 27.5881 45.1821 26.8583 44.4538L0.552868 18.2052C0.176918 17.8301 0 17.3556 0 16.8702Z" fill="#353535"/>
<path d="M0 1.87023C0 1.39579 0.187975 0.910261 0.552868 0.546157C1.28265 -0.182052 2.47685 -0.182052 3.20663 0.546157L28.1852 25.4708L52.7989 0.910261C53.5287 0.182052 54.7229 0.182052 55.4527 0.910261C56.1824 1.63847 56.1824 2.83008 55.4527 3.55829L29.5121 29.4538C28.7823 30.1821 27.5881 30.1821 26.8583 29.4538L0.552868 3.20522C0.176918 2.83008 0 2.35565 0 1.87023Z" fill="#353535"/>
</svg>
