<svg width="170" height="178" viewBox="0 0 170 178" fill="none" xmlns="http://www.w3.org/2000/svg">
<ellipse cx="84.5" cy="88.5" rx="80.5" ry="79.5" fill="#FF0000"/>
<path d="M85 0C131.945 0 170 39.8453 170 89C170 138.155 131.945 178 85 178C38.0545 178 0 138.155 0 89C0 39.8453 38.0545 0 85 0ZM85 166.875C90.542 166.875 98.4215 161.882 105.549 146.957C108.303 141.19 110.683 134.399 112.54 126.825H57.46C59.3173 134.399 61.6973 141.19 64.4513 146.957C71.5785 161.882 79.4538 166.875 85 166.875ZM55.2075 115.7H114.793C116.131 107.41 116.875 98.434 116.875 89C116.893 80.807 116.31 72.6247 115.132 64.525H54.8675C53.6898 72.6247 53.1073 80.807 53.125 89C53.125 98.434 53.8687 107.41 55.2075 115.7ZM123.48 126.825C120.203 141.43 115.081 153.868 108.749 162.821C126.3 156.606 141.014 143.775 150.025 126.825H123.48ZM154.887 115.7C157.862 107.143 159.381 98.1063 159.375 89C159.375 80.4515 158.057 72.2235 155.626 64.525H125.877C126.968 72.633 127.511 80.8118 127.5 89C127.5 98.3005 126.82 107.272 125.553 115.7H154.887ZM44.4465 115.7C43.1419 106.866 42.4911 97.9392 42.5 89C42.5 80.5138 43.0653 72.2991 44.1278 64.525H14.3735C11.884 72.4215 10.6185 80.6844 10.625 89C10.625 98.3806 12.2103 107.374 15.113 115.7H44.4465ZM19.9708 126.825C28.9832 143.776 43.6985 156.607 61.251 162.821C54.9185 153.868 49.7972 141.43 46.5205 126.825H19.9708ZM56.933 53.4H113.067C111.142 44.9227 108.57 37.3711 105.549 31.0432C98.4215 16.1179 90.5462 11.125 85 11.125C79.458 11.125 71.5785 16.1179 64.4513 31.0432C61.4295 37.3711 58.8582 44.9272 56.933 53.4ZM123.964 53.4H151.164C142.299 35.3787 127.089 21.6727 108.749 15.1789C115.4 24.5862 120.717 37.8294 123.964 53.4ZM61.251 15.1789C42.911 21.6727 27.7011 35.3787 18.836 53.4H46.036C49.283 37.8294 54.5998 24.5862 61.251 15.1789Z" fill="#990000"/>
</svg>
