<svg width="70" height="70" viewBox="0 0 70 70" fill="none" xmlns="http://www.w3.org/2000/svg">
<path fill-rule="evenodd" clip-rule="evenodd" d="M39.9225 39.9112H63.0462C64.2732 39.9112 65.45 39.4238 66.3176 38.5561C67.1853 37.6885 67.6727 36.5117 67.6727 35.2847C67.6727 34.0577 67.1853 32.8809 66.3176 32.0133C65.45 31.1457 64.2732 30.6582 63.0462 30.6582L39.9182 30.6626L39.9204 7.53672C39.9202 6.9293 39.8004 6.32787 39.5679 5.76674C39.3353 5.20562 38.9944 4.6958 38.5648 4.26639C38.1352 3.83699 37.6253 3.4964 37.064 3.26408C36.5028 3.03177 35.9013 2.91227 35.2939 2.91242C34.6865 2.91256 34.085 3.03234 33.5239 3.26492C32.9628 3.4975 32.453 3.83833 32.0235 4.26793C31.5941 4.69754 31.2536 5.20752 31.0212 5.76876C30.7889 6.32999 30.6694 6.93148 30.6696 7.5389L30.6718 30.6604L7.54807 30.6604C6.93404 30.6494 6.32398 30.7609 5.75348 30.9882C5.18298 31.2156 4.66347 31.5542 4.22526 31.9845C3.78705 32.4147 3.43891 32.928 3.20117 33.4942C2.96343 34.0604 2.84083 34.6684 2.84054 35.2825C2.84025 35.8966 2.96227 36.5046 3.19948 37.0711C3.4367 37.6376 3.78435 38.1511 4.22215 38.5818C4.65995 39.0125 5.17914 39.3516 5.74943 39.5795C6.31971 39.8074 6.92967 39.9194 7.54371 39.909L30.6739 39.9068L30.6739 63.0349C30.6636 63.6489 30.7756 64.2589 31.0034 64.8292C31.2313 65.3994 31.5705 65.9186 32.0011 66.3564C32.4318 66.7942 32.9454 67.1419 33.5118 67.3791C34.0783 67.6163 34.6863 67.7383 35.3005 67.738C35.9146 67.7377 36.5225 67.6152 37.0887 67.3774C37.655 67.1397 38.1682 66.7915 38.5985 66.3533C39.0287 65.9151 39.3674 65.3956 39.5947 64.8251C39.8221 64.2546 39.9335 63.6445 39.9225 63.0305V39.9112Z" fill="white"/>
</svg>
