<svg width="41" height="41" viewBox="0 0 41 41" fill="none" xmlns="http://www.w3.org/2000/svg">
<g clip-path="url(#clip0_220_2)">
<path d="M20.5 0C9.17695 0 0 9.17695 0 20.5C0 31.823 9.17695 41 20.5 41C31.823 41 41 31.823 41 20.5C41 9.17695 31.823 0 20.5 0ZM32.4557 22.2057C32.4557 23.1506 31.6949 23.9113 30.75 23.9113H23.9193V30.75C23.9193 31.6949 23.1586 32.4557 22.2137 32.4557H18.7943C17.8494 32.4557 17.0887 31.6869 17.0887 30.75V23.9193H10.25C9.30508 23.9193 8.54434 23.1506 8.54434 22.2137V18.7943C8.54434 17.8494 9.30508 17.0887 10.25 17.0887H17.0807V10.25C17.0807 9.30508 17.8414 8.54434 18.7863 8.54434H22.2057C23.1506 8.54434 23.9113 9.31309 23.9113 10.25V17.0807H30.75C31.6949 17.0807 32.4557 17.8494 32.4557 18.7863V22.2057Z" fill="#990000"/>
</g>
<defs>
<clipPath id="clip0_220_2">
<rect width="41" height="41" fill="white"/>
</clipPath>
</defs>
</svg>
