<svg width="93" height="93" viewBox="0 0 93 93" fill="none" xmlns="http://www.w3.org/2000/svg">
<path d="M10.25 92.25C7.43125 92.25 5.01908 91.2472 3.0135 89.2416C1.00792 87.236 0.00341667 84.8222 0 82V10.25C0 7.43125 1.0045 5.01908 3.0135 3.0135C5.0225 1.00792 7.43467 0.00341667 10.25 0H82C84.8188 0 87.2326 1.0045 89.2416 3.0135C91.2506 5.0225 92.2534 7.43467 92.25 10.25V82C92.25 84.8188 91.2472 87.2326 89.2416 89.2416C87.236 91.2506 84.8222 92.2534 82 92.25H10.25ZM15.375 71.75H76.875L57.6562 46.125L42.2812 66.625L30.75 51.25L15.375 71.75Z" fill="#727272"/>
</svg>
