<svg width="125" height="119" viewBox="0 0 125 119" fill="none" xmlns="http://www.w3.org/2000/svg">
<path d="M50.6049 47.6316C53.3384 47.6316 56.0452 47.0932 58.5707 46.0471C61.0962 45.001 63.3909 43.4677 65.3238 41.5348C67.2568 39.6019 68.79 37.3071 69.8361 34.7816C70.8822 32.2562 71.4206 29.5494 71.4206 26.8158C71.4206 24.0822 70.8822 21.3754 69.8361 18.8499C68.79 16.3244 67.2568 14.0297 65.3238 12.0968C63.3909 10.1639 61.0962 8.6306 58.5707 7.58451C56.0452 6.53842 53.3384 6 50.6049 6C45.0842 6 39.7896 8.19309 35.8859 12.0968C31.9821 16.0005 29.7891 21.2951 29.7891 26.8158C29.7891 32.3365 31.9821 37.6311 35.8859 41.5348C39.7896 45.4385 45.0842 47.6316 50.6049 47.6316Z" fill="#990000" stroke="#990000" stroke-width="11.8947" stroke-linecap="round" stroke-linejoin="round"/>
<path d="M118.999 32.7632L95.21 56.5527ZM95.21 32.7632L118.999 56.5527Z" fill="#990000"/>
<path d="M118.999 32.7632L95.21 56.5527M95.21 32.7632L118.999 56.5527" stroke="#990000" stroke-width="11.8947" stroke-linecap="round" stroke-linejoin="round"/>
<path d="M6 109.484V113.052H95.2105V109.484C95.2105 96.1619 95.2105 89.5009 92.6175 84.41C90.3367 79.9339 86.6976 76.2947 82.2215 74.014C77.1305 71.4209 70.4695 71.4209 57.1474 71.4209H44.0632C30.7411 71.4209 24.08 71.4209 18.9891 74.014C14.513 76.2947 10.8738 79.9339 8.59305 84.41C6 89.5009 6 96.1619 6 109.484Z" fill="#990000" stroke="#990000" stroke-width="11.8947" stroke-linecap="round" stroke-linejoin="round"/>
</svg>
