<svg width="49" height="49" viewBox="0 0 49 49" fill="none" xmlns="http://www.w3.org/2000/svg">
<path fill-rule="evenodd" clip-rule="evenodd" d="M24.3041 30.847L40.655 47.1979C41.5227 48.0656 42.6994 48.553 43.9265 48.553C45.1535 48.553 46.3302 48.0656 47.1979 47.1979C48.0655 46.3303 48.5529 45.1535 48.5529 43.9265C48.5529 42.6995 48.0655 41.5227 47.1979 40.6551L30.8408 24.3042L47.1948 7.95326C47.6242 7.52365 47.9648 7.01367 48.1971 6.45243C48.4294 5.8912 48.5489 5.28971 48.5488 4.68229C48.5486 4.07488 48.4288 3.47344 48.1963 2.91231C47.9637 2.35119 47.6229 1.84137 47.1932 1.41196C46.7636 0.982558 46.2537 0.641975 45.6924 0.409659C45.1312 0.177344 44.5297 0.0578462 43.9223 0.0579894C43.3149 0.0581326 42.7134 0.177913 42.1523 0.410493C41.5912 0.643073 41.0814 0.983898 40.652 1.41351L24.3041 17.7644L7.9532 1.41351C7.52677 0.971575 7.01659 0.618996 6.45244 0.376342C5.88828 0.133688 5.28145 0.0058179 4.66735 0.000193953C4.05325 -0.00543 3.44418 0.111304 2.87568 0.343585C2.30718 0.575866 1.79063 0.919042 1.35617 1.35309C0.921716 1.78714 0.578053 2.30336 0.345236 2.87165C0.112419 3.43993 -0.00488881 4.04889 0.000156068 4.66299C0.00520095 5.2771 0.132498 5.88405 0.374619 6.44843C0.616741 7.01281 0.968839 7.52332 1.41037 7.95017L17.7675 24.3042L1.41345 40.6582C0.971923 41.085 0.619826 41.5955 0.377704 42.1599C0.135582 42.7243 0.00828406 43.3312 0.00323918 43.9453C-0.0018057 44.5595 0.115503 45.1684 0.34832 45.7367C0.581137 46.305 0.924799 46.8212 1.35926 47.2553C1.79371 47.6893 2.31026 48.0325 2.87876 48.2648C3.44727 48.497 4.05634 48.6138 4.67044 48.6081C5.28454 48.6025 5.89137 48.4747 6.45552 48.232C7.01967 47.9893 7.52985 47.6368 7.95628 47.1948L24.3041 30.847Z" fill="white"/>
</svg>
