<svg width="40" height="33" viewBox="0 0 40 33" fill="none" xmlns="http://www.w3.org/2000/svg">
<path d="M36 0H4C1.8 0 0.02 1.85625 0.02 4.125L0 28.875C0 31.1437 1.8 33 4 33H36C38.2 33 40 31.1437 40 28.875V4.125C40 1.85625 38.2 0 36 0ZM35.2 8.76562L21.06 17.8819C20.42 18.2944 19.58 18.2944 18.94 17.8819L4.8 8.76562C4.59945 8.64953 4.42384 8.49268 4.28378 8.30456C4.14372 8.11645 4.04212 7.90098 3.98515 7.6712C3.92818 7.44143 3.91701 7.20212 3.95231 6.96776C3.98762 6.7334 4.06867 6.50887 4.19056 6.30775C4.31245 6.10663 4.47265 5.9331 4.66145 5.79768C4.85026 5.66225 5.06374 5.56774 5.28899 5.51987C5.51424 5.47199 5.74657 5.47174 5.97191 5.51914C6.19725 5.56654 6.41093 5.6606 6.6 5.79562L20 14.4375L33.4 5.79562C33.5891 5.6606 33.8027 5.56654 34.0281 5.51914C34.2534 5.47174 34.4858 5.47199 34.711 5.51987C34.9363 5.56774 35.1497 5.66225 35.3385 5.79768C35.5274 5.9331 35.6875 6.10663 35.8094 6.30775C35.9313 6.50887 36.0124 6.7334 36.0477 6.96776C36.083 7.20212 36.0718 7.44143 36.0149 7.6712C35.9579 7.90098 35.8563 8.11645 35.7162 8.30456C35.5762 8.49268 35.4005 8.64953 35.2 8.76562Z" fill="#FF0000"/>
</svg>
