<svg width="32" height="42" viewBox="0 0 32 42" fill="none" xmlns="http://www.w3.org/2000/svg">
<path fill-rule="evenodd" clip-rule="evenodd" d="M16 39.8994L17.416 41.382C17.2302 41.5779 17.0094 41.7333 16.7662 41.8394C16.523 41.9454 16.2623 42 15.999 42C15.7357 42 15.475 41.9454 15.2318 41.8394C14.9886 41.7333 14.7678 41.5779 14.582 41.382L14.57 41.3673L14.536 41.3316L14.412 41.1993C13.707 40.4367 13.0136 39.6624 12.332 38.8767C10.6214 36.9074 8.98292 34.8703 7.42 32.77C5.636 30.3551 3.812 27.6251 2.426 24.9287C1.07 22.2849 0 19.4205 0 16.7998C0 7.26799 7.184 0 16 0C24.816 0 32 7.26799 32 16.7998C32 19.4205 30.93 22.2849 29.574 24.9266C28.188 27.6272 26.366 30.3551 24.58 32.77C22.3935 35.7081 20.0596 38.5219 17.588 41.1993L17.464 41.3316L17.43 41.3673L17.418 41.3799L16 39.8994ZM16 23.0997C17.5913 23.0997 19.1174 22.4359 20.2426 21.2545C21.3679 20.073 22 18.4706 22 16.7998C22 15.1289 21.3679 13.5265 20.2426 12.345C19.1174 11.1636 17.5913 10.4998 16 10.4998C14.4087 10.4998 12.8826 11.1636 11.7574 12.345C10.6321 13.5265 10 15.1289 10 16.7998C10 18.4706 10.6321 20.073 11.7574 21.2545C12.8826 22.4359 14.4087 23.0997 16 23.0997Z" fill="#FF0000"/>
</svg>
