<svg width="75" height="71" viewBox="0 0 75 71" fill="none" xmlns="http://www.w3.org/2000/svg">
<path d="M63.75 0H11.25C8.26631 0 5.40483 1.18111 3.29505 3.28349C1.18526 5.38587 0 8.23731 0 11.2105V67.2632C0.00114509 67.9253 0.178833 68.5753 0.514877 69.1465C0.850921 69.7178 1.33325 70.1898 1.9125 70.5142C2.47296 70.8307 3.10579 70.998 3.75 71C4.42306 70.9998 5.08367 70.8191 5.6625 70.4768L22.5 60.3126C23.1224 59.9434 23.8387 59.7617 24.5625 59.7895H63.75C66.7337 59.7895 69.5952 58.6084 71.7049 56.506C73.8147 54.4036 75 51.5522 75 48.5789V11.2105C75 8.23731 73.8147 5.38587 71.7049 3.28349C69.5952 1.18111 66.7337 0 63.75 0ZM22.5 33.6316C21.7583 33.6316 21.0333 33.4124 20.4166 33.0018C19.7999 32.5912 19.3193 32.0076 19.0354 31.3248C18.7516 30.6419 18.6774 29.8906 18.8221 29.1657C18.9667 28.4408 19.3239 27.775 19.8484 27.2524C20.3728 26.7298 21.041 26.3739 21.7684 26.2297C22.4958 26.0855 23.2498 26.1595 23.9351 26.4423C24.6203 26.7252 25.206 27.2041 25.618 27.8187C26.0301 28.4332 26.25 29.1557 26.25 29.8947C26.25 30.8858 25.8549 31.8363 25.1516 32.5371C24.4484 33.2379 23.4946 33.6316 22.5 33.6316ZM37.5 33.6316C36.7583 33.6316 36.0333 33.4124 35.4166 33.0018C34.7999 32.5912 34.3193 32.0076 34.0354 31.3248C33.7516 30.6419 33.6774 29.8906 33.8221 29.1657C33.9667 28.4408 34.3239 27.775 34.8484 27.2524C35.3728 26.7298 36.041 26.3739 36.7684 26.2297C37.4958 26.0855 38.2498 26.1595 38.9351 26.4423C39.6203 26.7252 40.206 27.2041 40.618 27.8187C41.0301 28.4332 41.25 29.1557 41.25 29.8947C41.25 30.8858 40.8549 31.8363 40.1516 32.5371C39.4484 33.2379 38.4946 33.6316 37.5 33.6316ZM52.5 33.6316C51.7583 33.6316 51.0333 33.4124 50.4166 33.0018C49.7999 32.5912 49.3193 32.0076 49.0354 31.3248C48.7516 30.6419 48.6774 29.8906 48.8221 29.1657C48.9667 28.4408 49.3239 27.775 49.8483 27.2524C50.3728 26.7298 51.041 26.3739 51.7684 26.2297C52.4958 26.0855 53.2498 26.1595 53.9351 26.4423C54.6203 26.7252 55.206 27.2041 55.618 27.8187C56.0301 28.4332 56.25 29.1557 56.25 29.8947C56.25 30.8858 55.8549 31.8363 55.1516 32.5371C54.4484 33.2379 53.4946 33.6316 52.5 33.6316Z" fill="white"/>
</svg>
