<svg width="32" height="41" viewBox="0 0 32 41" fill="none" xmlns="http://www.w3.org/2000/svg">
<path d="M12.2356 17.5099L15.5871 14.4477C16.5035 13.6088 17.1476 12.5159 17.4367 11.3093C17.7259 10.1027 17.6468 8.83752 17.2098 7.67606L15.7806 3.87011C15.2466 2.44924 14.1896 1.28484 12.8247 0.614127C11.4599 -0.056587 9.88997 -0.183149 8.43482 0.260226C3.07996 1.89401 -1.03604 6.85761 0.230902 12.7517C1.06409 16.6292 2.65869 21.4963 5.67938 26.6746C8.70631 31.8654 12.1639 35.6994 15.1284 38.3943C19.6033 42.4555 26.0004 41.4409 30.1164 37.6132C31.219 36.5869 31.888 35.1801 31.9872 33.6792C32.0863 32.1784 31.6081 30.6962 30.65 29.5345L28.0287 26.3603C27.2382 25.4004 26.1776 24.6984 24.9837 24.3446C23.7897 23.9908 22.5168 24.0013 21.3289 24.3749L16.9976 25.7348C15.8784 24.5842 14.8981 23.3069 14.0768 21.9289C13.2842 20.5354 12.6659 19.0503 12.2356 17.5068" fill="#FF0000"/>
</svg>
