<svg width="40" height="40" viewBox="0 0 40 40" fill="none" xmlns="http://www.w3.org/2000/svg">
<path d="M4.44444 0H35.5556C36.7343 0 37.8648 0.468252 38.6983 1.30175C39.5317 2.13524 40 3.2657 40 4.44444V35.5556C40 38.0222 38.0222 40 35.5556 40H4.44444C3.2657 40 2.13524 39.5317 1.30175 38.6983C0.468252 37.8648 0 36.7343 0 35.5556V4.44444C0 2 2 0 4.44444 0ZM28.8889 31.1111V26.6667H11.1111V31.1111H28.8889ZM28.8889 17.7778L20 8.88889L11.1111 17.7778H16.6667V24.4444H23.3333V17.7778H28.8889Z" fill="white"/>
</svg>
