<svg width="23" height="23" viewBox="0 0 23 23" fill="none" xmlns="http://www.w3.org/2000/svg">
<path fill-rule="evenodd" clip-rule="evenodd" d="M11.5131 14.5959L19.2587 22.3326C19.6697 22.7432 20.2271 22.9738 20.8084 22.9738C21.3896 22.9738 21.9471 22.7432 22.3581 22.3326C22.7691 21.9221 23 21.3653 23 20.7847C23 20.2041 22.7691 19.6473 22.3581 19.2368L14.6096 11.5L22.3566 3.76324C22.56 3.55996 22.7214 3.31866 22.8314 3.0531C22.9415 2.78754 22.9981 2.50293 22.998 2.21552C22.998 1.92811 22.9412 1.64352 22.831 1.37802C22.7209 1.11251 22.5594 0.871281 22.3559 0.668099C22.1524 0.464917 21.9108 0.303763 21.6449 0.193838C21.3791 0.0839138 21.0942 0.0273711 20.8064 0.0274388C20.5187 0.0275066 20.2338 0.0841831 19.968 0.194233C19.7021 0.304283 19.4606 0.465551 19.2572 0.668829L11.5131 8.40559L3.76751 0.668829C3.5655 0.45972 3.32383 0.29289 3.05658 0.178074C2.78934 0.0632572 2.50188 0.00275286 2.21097 9.17728e-05C1.92007 -0.00256931 1.63154 0.0526657 1.36224 0.162574C1.09293 0.272482 0.848239 0.434863 0.642432 0.640241C0.436626 0.845619 0.27383 1.08988 0.163542 1.35878C0.0532542 1.62767 -0.00231588 1.91581 7.39311e-05 2.20639C0.00246374 2.49696 0.0627654 2.78415 0.177461 3.0512C0.292156 3.31825 0.458948 3.55981 0.668105 3.76178L8.41662 11.5L0.669566 19.2382C0.46041 19.4402 0.293618 19.6817 0.178922 19.9488C0.0642266 20.2158 0.00392424 20.503 0.00153443 20.7936C-0.000855379 21.0842 0.0547147 21.3723 0.165002 21.6412C0.27529 21.9101 0.438087 22.1544 0.643893 22.3598C0.849699 22.5651 1.09439 22.7275 1.3637 22.8374C1.633 22.9473 1.92153 23.0026 2.21243 22.9999C2.50334 22.9972 2.7908 22.9367 3.05804 22.8219C3.32529 22.7071 3.56696 22.5403 3.76897 22.3312L11.5131 14.5959Z" fill="#FF0000"/>
</svg>
