<svg width="23" height="23" viewBox="0 0 23 23" fill="none" xmlns="http://www.w3.org/2000/svg">
<path d="M21.7369 0H1.26899C0.932435 0 0.609662 0.13364 0.371679 0.371522C0.133697 0.609403 0 0.932039 0 1.26845V21.7296C0 22.066 0.133697 22.3886 0.371679 22.6265C0.609662 22.8644 0.932435 22.998 1.26899 22.998H12.2838V14.0935H9.28902V10.6218H12.2838V8.06151C12.2838 5.09138 14.0995 3.47361 16.7507 3.47361C17.6454 3.47042 18.5395 3.51603 19.4292 3.61022V6.715H17.596C16.1533 6.715 15.8741 7.39997 15.8741 8.40497V10.6218H19.3121L18.865 14.0935H15.8741V23H21.731C22.0674 22.9995 22.3899 22.8657 22.6278 22.6279C22.8656 22.3901 22.9995 22.0678 23 21.7315V1.27041C23.0005 0.934665 22.8679 0.612412 22.6311 0.374276C22.3943 0.136141 22.0727 0.00154917 21.7369 0Z" fill="white"/>
</svg>
